# xmcd
#
# Track frame offsets: 
#        150
#        15895
#        32650
#        46247
#        61800
#        78087
#        94955
#        109802
#        121840
#        141540
#
# Disc length: 2086 seconds
#
# Revision: 6
# Processed by: cddbd v1.5.2PL0 Copyright (c) Steve Scherf et al.
# Submitted via: ExactAudioCopy v0.99pb5
#
DISCID=7608240a
DTITLE=Kathy Mattea - Walking Away A Winner
DYEAR=1994
DGENRE=Country
TTITLE0=Walking Away a Winner
TTITLE1=The Streets of Your Town
TTITLE2=Maybe She's Human
TTITLE3=Clown in Your Rodeo
TTITLE4=Who Turned Out the Light
TTITLE5=Nobody's Gonna Rain On Our Parade
TTITLE6=Another Man
TTITLE7=The Cape
TTITLE8=Grand Canyon
TTITLE9=Who's Gonna Know
EXTD=Original Release Date: May 17, 1994 \nLabel: Mca Special Products
EXTD=\nCatalog Number: 518852 \nCredits:\nTimothy B. Schmit Vocals (B
EXTD=ackground)  \n  Jonathan Yudkin Fiddle  \n  Biff Watson Guitar  \n
EXTD=Wayne Kirkpatrick Vocals (Background)  \n  Sam Bush Fiddle  \n 
EXTD=Andrew Gold Vocals (Background)  \n  Kenny Edwards Vocals (Backg
EXTD=round)  \n  Dan Dugmore Guitar (Steel)  \n  Kathy Mattea Guitar, 
EXTD=Main Performer, Vocals  \n  Dann Huff Guitar (Electric)  \n  John
EXTD=Hammond Drums, Percussion  \n  Duncan Mullins Bass  \n  Tom Road
EXTD=y Percussion  \n  Mary Ann Kennedy ?  \n  Pamela Rose Vocals (Bac
EXTD=kground)  \n  Bill Cuomo Keyboards  \n  Jerry Douglas Dobro  \n  
EXTD=Karla Bonoff Vocals (Background)  \n  Lisa Angelle Vocals (Backgr
EXTD=ound)  \n  Carl Marsh Keyboards  \n  Bobby G. Taylor Oboe  \n  We
EXTD=ndy Waldman Vocals (Background)  \n  Josh Leo Guitar, Producer
EXTT0=
EXTT1=
EXTT2=
EXTT3=
EXTT4=
EXTT5=
EXTT6=
EXTT7=
EXTT8=
EXTT9=
PLAYORDER=
